<svg viewBox="0 0 108 40" fill="none" xmlns="http://www.w3.org/2000/svg">
<g clip-path="url(#clip0_1_38)">
<g opacity="0.9">
<path d="M106.975 0.287373C105.68 1.87424 104.485 3.54125 103.399 5.27853C100.126 10.504 98.0758 15.9417 97.2865 20.8798L99.2489 26.5429L107.826 0.0177002L106.975 0.287373Z" fill="#DDDDDD"/>
<path d="M106.75 3.3466L107.826 0L81.4991 9.05393L85.6003 10.4067C91.3993 10.6454 99.1386 8.16092 106.768 3.33333L106.75 3.3466Z" fill="#DDDDDD"/>
<path d="M96.4353 11.618C93.5733 8.78426 89.5383 7.58179 85.0623 7.83378L81.4991 9.05394L94.689 13.3996L99.2489 26.534L100.413 22.9487C100.589 18.4527 99.3106 14.4297 96.4442 11.6092L96.4353 11.618Z" fill="#DDDDDD"/>
<path d="M106.975 0.287373C105.68 1.87424 104.485 3.54125 103.399 5.27853C100.126 10.504 98.0758 15.9417 97.2865 20.8798L99.2489 26.5429L107.826 0.0177002L106.975 0.287373Z" fill="#DDDDDD"/>
<path d="M106.75 3.3466L107.826 0L81.4991 9.05393L85.6003 10.4067C91.3993 10.6454 99.1386 8.16092 106.768 3.33333L106.75 3.3466Z" fill="#DDDDDD"/>
<path d="M96.4353 11.618C93.5733 8.78426 89.5383 7.58179 85.0623 7.83378L81.4991 9.05394L94.689 13.3996L99.2489 26.534L100.413 22.9487C100.589 18.4527 99.3106 14.4297 96.4442 11.6092L96.4353 11.618Z" fill="#DDDDDD"/>
</g>
<path d="M106.741 3.35102L107.826 0L106.971 0.296198C105.675 1.87899 104.482 3.54315 103.399 5.27851L103.368 5.32714C104.514 4.71706 105.617 4.06278 106.741 3.35102Z" fill="#DDDDDD"/>
<path d="M98.8035 14.863C98.1288 16.8219 97.6213 18.8347 97.2865 20.8798L99.2489 26.5429L100.413 22.9443C100.579 20.1566 100.024 17.3732 98.8035 14.863Z" fill="#DDDDDD"/>
<path d="M93.3749 9.40764C90.7943 8.15182 87.9264 7.60855 85.0667 7.83382L81.4991 9.05398L85.6047 10.4068C88.2298 10.461 90.8484 10.1243 93.3749 9.40764Z" fill="#DDDDDD"/>
<path d="M15.5845 21.229L15.2979 22.4403C14.9848 23.7666 13.4501 24.8718 11.4745 24.8718H5.66228L7.08667 18.7798H12.8989C14.8745 18.7798 15.8976 19.8806 15.5845 21.2113V21.229ZM14.0852 16.1273H4.46279C4.31456 16.1329 4.17122 16.182 4.05051 16.2684C3.92981 16.3548 3.83703 16.4749 3.78366 16.6136L-1.67014e-05 32.6437C-0.00619921 32.7053 0.000618858 32.7676 0.0199951 32.8265C0.0393714 32.8853 0.0708729 32.9394 0.112456 32.9853C0.154039 33.0311 0.204774 33.0677 0.261369 33.0926C0.317964 33.1176 0.379155 33.1303 0.440972 33.13H3.131C3.28047 33.1249 3.42521 33.0762 3.54743 32.9898C3.66965 32.9034 3.76402 32.7831 3.81894 32.6437L5.01843 27.542H11.4128C15.3817 27.542 18.4377 25.3625 19.0375 22.8072L19.4784 20.8621C20.087 18.3378 18.0805 16.1273 14.0852 16.1273Z" fill="#DDDDDD"/>
<path d="M30.0754 24.1468H24.2544L25.5244 18.7798H31.3366C33.3123 18.7798 34.3354 19.8806 34.0223 21.2113L33.8988 21.6976C33.5857 23.0239 32.0599 24.1291 30.0754 24.1291V24.1468ZM32.7875 26.4545L32.8228 26.3263C32.8228 26.3263 36.8755 25.3625 37.6384 22.0778L37.925 20.8621C38.5248 18.3378 36.5006 16.1273 32.5229 16.1273H22.9005C22.7528 16.1326 22.6099 16.1816 22.4898 16.2682C22.3698 16.3547 22.2779 16.4749 22.2258 16.6136L18.4465 32.6437C18.4404 32.7053 18.4472 32.7676 18.4666 32.8265C18.4859 32.8853 18.5174 32.9394 18.559 32.9853C18.6006 33.0311 18.6513 33.0677 18.7079 33.0926C18.7645 33.1176 18.8257 33.1303 18.8875 33.13H21.6084C21.7579 33.1249 21.9026 33.0762 22.0249 32.9898C22.1471 32.9034 22.2415 32.7831 22.2964 32.6437L23.637 26.817H28.8847L32.0378 32.6437C32.093 32.7927 32.1941 32.9203 32.3266 33.0077C32.459 33.0952 32.6159 33.138 32.7743 33.13H35.8876C36.1743 33.13 36.4389 32.8957 36.2889 32.6437L32.7875 26.4545Z" fill="#DDDDDD"/>
<path d="M70.9242 16.1273H68.1018C67.9162 16.1375 67.7346 16.186 67.5685 16.2697C67.4023 16.3533 67.2551 16.4704 67.1361 16.6136L57.8753 25.8532H57.7386L52.826 16.6136C52.767 16.4672 52.6649 16.3423 52.5334 16.2554C52.4018 16.1686 52.247 16.1239 52.0896 16.1273H49.2628C49.1136 16.1335 48.9694 16.1826 48.8474 16.2689C48.7254 16.3551 48.6307 16.4748 48.5749 16.6136L44.8132 32.6437C44.8071 32.7053 44.8139 32.7676 44.8333 32.8265C44.8526 32.8853 44.8841 32.9394 44.9257 32.9853C44.9673 33.0311 45.018 33.0677 45.0746 33.0926C45.1312 33.1176 45.1924 33.1303 45.2542 33.13H47.9399C48.0893 33.1249 48.2341 33.0762 48.3563 32.9898C48.4785 32.9034 48.5729 32.7831 48.6278 32.6437L51.1899 21.7153H51.3399L55.4278 29.0097C55.4867 29.1238 55.577 29.2186 55.688 29.2829C55.799 29.3471 55.926 29.3781 56.054 29.3722H57.893C58.1961 29.3607 58.4826 29.2306 58.6912 29.0097L66.188 21.7153H66.3379L63.7625 32.6437C63.7563 32.7053 63.7632 32.7676 63.7825 32.8265C63.8019 32.8853 63.8334 32.9394 63.875 32.9853C63.9166 33.0311 63.9673 33.0677 64.0239 33.0926C64.0805 33.1176 64.1417 33.1303 64.2035 33.13H66.8891C67.0386 33.1249 67.1833 33.0762 67.3056 32.9898C67.4278 32.9034 67.5222 32.7831 67.5771 32.6437L71.3387 16.6136C71.3449 16.552 71.3381 16.4897 71.3187 16.4308C71.2993 16.372 71.2678 16.3179 71.2262 16.272C71.1846 16.2262 71.1339 16.1896 71.0773 16.1647C71.0207 16.1397 70.9595 16.127 70.8977 16.1273H70.9242Z" fill="#DDDDDD"/>
<path d="M86.3896 30.4642H74.774L75.85 25.8532H83.7878C83.9366 25.8455 84.0801 25.7958 84.2018 25.7097C84.3236 25.6236 84.4185 25.5048 84.4757 25.367L84.877 23.6605C84.8832 23.5988 84.8764 23.5366 84.857 23.4777C84.8377 23.4189 84.8062 23.3648 84.7646 23.3189C84.723 23.273 84.6723 23.2365 84.6157 23.2115C84.5591 23.1866 84.4979 23.1739 84.4361 23.1742H76.4983L77.5258 18.7799H88.8503C88.9925 18.7779 89.1311 18.7353 89.2499 18.657C89.3687 18.5786 89.4626 18.4679 89.5207 18.3378L89.922 16.6313C89.9281 16.5697 89.9213 16.5074 89.9019 16.4485C89.8826 16.3897 89.8511 16.3356 89.8095 16.2897C89.7679 16.2439 89.7172 16.2073 89.6606 16.1824C89.604 16.1574 89.5428 16.1447 89.481 16.145H74.8887C74.7415 16.1526 74.5996 16.2024 74.4799 16.2887C74.3603 16.3749 74.2679 16.4939 74.2139 16.6313L70.4259 32.7189C70.3641 32.9708 70.5273 33.13 70.8007 33.13H85.7634C85.9112 33.1247 86.0541 33.0757 86.1742 32.9891C86.2942 32.9026 86.3861 32.7824 86.4381 32.6437L86.8394 30.9505C86.8456 30.8888 86.8388 30.8266 86.8194 30.7677C86.8001 30.7089 86.7686 30.6548 86.727 30.6089C86.6854 30.5631 86.6347 30.5265 86.5781 30.5016C86.5215 30.4766 86.4603 30.4639 86.3985 30.4642H86.3896Z" fill="#DDDDDD"/>
<path d="M45.2013 16.1273H42.4231C42.2741 16.134 42.1301 16.1834 42.0081 16.2695C41.8862 16.3557 41.7915 16.4751 41.7352 16.6136L37.9515 32.7188C37.8986 32.9576 38.0485 33.13 38.3351 33.13H41.2853C41.4182 33.1402 41.5505 33.1052 41.661 33.0306C41.7715 32.956 41.8535 32.8461 41.8939 32.7188L45.682 16.6136C45.6882 16.552 45.6814 16.4897 45.662 16.4308C45.6426 16.372 45.6111 16.3179 45.5695 16.272C45.5279 16.2262 45.4772 16.1896 45.4206 16.1647C45.364 16.1397 45.3028 16.127 45.241 16.1273H45.2013Z" fill="#DDDDDD"/>
</g>
<defs>
<clipPath id="clip0_1_38">
<rect width="107.826" height="40" fill="white"/>
</clipPath>
</defs>
</svg>
