<svg viewBox="0 0 60 60" fill="none" xmlns="http://www.w3.org/2000/svg">
<g clip-path="url(#clip0_2_90)">
<g opacity="0.8">
<path d="M58.0603 0.649567C55.1081 4.23667 52.3858 8.00494 49.9095 11.932C42.4523 23.7442 37.7789 36.036 35.9799 47.1985L40.4523 60L60 0L58.0603 0.649567Z" fill="white"/>
<path d="M57.5477 7.56496L60 0L0 20.4664L9.34673 23.5243C22.5628 24.064 40.201 18.4477 57.5879 7.53498L57.5477 7.56496Z" fill="white"/>
<path d="M34.0402 26.2625C27.5176 19.8568 18.3216 17.1386 8.1206 17.7082L0 20.4663L30.0603 30.2898L40.4523 60L43.1055 51.8954C43.5075 41.7322 40.593 32.6382 34.0603 26.2625H34.0402Z" fill="white"/>
<path d="M58.0603 0.649567C55.1081 4.23667 52.3858 8.00494 49.9095 11.932C42.4523 23.7442 37.7789 36.036 35.9799 47.1985L40.4523 60L60 0L58.0603 0.649567Z" fill="white"/>
<path d="M57.5477 7.56496L60 0L0 20.4664L9.34673 23.5243C22.5628 24.064 40.201 18.4477 57.5879 7.53498L57.5477 7.56496Z" fill="white"/>
<path d="M34.0402 26.2625C27.5176 19.8568 18.3216 17.1386 8.1206 17.7082L0 20.4663L30.0603 30.2898L40.4523 60L43.1055 51.8954C43.5075 41.7322 40.593 32.6382 34.0603 26.2625H34.0402Z" fill="white"/>
</g>
<path d="M57.5276 7.57495L60 0L58.0503 0.669554C55.0982 4.24744 52.3791 8.00927 49.9096 11.932L49.8392 12.042C52.402 10.6629 54.9648 9.18388 57.5276 7.57495Z" fill="white"/>
<path d="M39.4372 33.5976C37.8996 38.0258 36.743 42.5757 35.9799 47.1985L40.4523 60L43.1055 51.8654C43.4829 45.5638 42.2195 39.2719 39.4372 33.5976Z" fill="white"/>
<path d="M27.0653 21.2658C21.1842 18.4271 14.6481 17.199 8.13065 17.7082L0 20.4664L9.35678 23.5243C15.3395 23.647 21.3074 22.8859 27.0653 21.2658Z" fill="white"/>
</g>
<defs>
<clipPath id="clip0_2_90">
<rect width="60" height="60" fill="white"/>
</clipPath>
</defs>
</svg>
