<svg width="407" height="51" viewBox="0 0 407 51" fill="none" xmlns="http://www.w3.org/2000/svg">
<path d="M31.3673 14.0964H26.872C26.6061 12.8034 26.1409 11.6675 25.4762 10.6886C24.8237 9.70983 24.0262 8.88811 23.0836 8.22348C22.1531 7.54677 21.1199 7.03923 19.984 6.70088C18.8481 6.36252 17.6639 6.19334 16.4313 6.19334C14.1836 6.19334 12.1475 6.7613 10.3228 7.89721C8.51013 9.03312 7.06608 10.7068 5.99059 12.9182C4.92719 15.1296 4.39549 17.8424 4.39549 21.0568C4.39549 24.2712 4.92719 26.9841 5.99059 29.1955C7.06608 31.4069 8.51013 33.0805 10.3228 34.2164C12.1475 35.3523 14.1836 35.9203 16.4313 35.9203C17.6639 35.9203 18.8481 35.7511 19.984 35.4128C21.1199 35.0744 22.1531 34.5729 23.0836 33.9083C24.0262 33.2316 24.8237 32.4038 25.4762 31.425C26.1409 30.4341 26.6061 29.2982 26.872 28.0173H31.3673C31.0289 29.9145 30.4126 31.6123 29.5184 33.1107C28.6242 34.6092 27.5124 35.884 26.1832 36.9354C24.8539 37.9746 23.3615 38.7661 21.706 39.3099C20.0626 39.8537 18.3043 40.1256 16.4313 40.1256C13.2652 40.1256 10.4496 39.3522 7.98447 37.8054C5.51931 36.2587 3.57981 34.0593 2.16596 31.2075C0.752122 28.3556 0.0452002 24.9721 0.0452002 21.0568C0.0452002 17.1416 0.752122 13.758 2.16596 10.9062C3.57981 8.0543 5.51931 5.85499 7.98447 4.30822C10.4496 2.76145 13.2652 1.98807 16.4313 1.98807C18.3043 1.98807 20.0626 2.25996 21.706 2.80375C23.3615 3.34753 24.8539 4.14509 26.1832 5.1964C27.5124 6.23564 28.6242 7.50447 29.5184 9.00291C30.4126 10.4893 31.0289 12.1871 31.3673 14.0964ZM49.7246 40.1981C47.0419 40.1981 44.7278 39.606 42.7822 38.4217C40.8488 37.2254 39.3564 35.5578 38.3051 33.4189C37.2658 31.2679 36.7462 28.7665 36.7462 25.9146C36.7462 23.0628 37.2658 20.5493 38.3051 18.3741C39.3564 16.1869 40.8186 14.4831 42.6916 13.2626C44.5767 12.03 46.776 11.4137 49.2895 11.4137C50.7396 11.4137 52.1716 11.6554 53.5854 12.1387C54.9993 12.6221 56.2862 13.4076 57.4463 14.4951C58.6064 15.5706 59.5308 16.9966 60.2196 18.7729C60.9084 20.5493 61.2528 22.7365 61.2528 25.3346V27.1472H39.7914V23.4495H56.9025C56.9025 21.8785 56.5883 20.4768 55.96 19.2442C55.3437 18.0116 54.4615 17.0388 53.3135 16.3259C52.1776 15.6129 50.8363 15.2564 49.2895 15.2564C47.5857 15.2564 46.1114 15.6794 44.8667 16.5253C43.6342 17.3591 42.6856 18.4467 42.0209 19.788C41.3563 21.1293 41.024 22.5673 41.024 24.102V26.5672C41.024 28.6698 41.3865 30.4522 42.1116 31.9144C42.8487 33.3645 43.8698 34.4702 45.1749 35.2315C46.48 35.9807 47.9965 36.3553 49.7246 36.3553C50.8484 36.3553 51.8634 36.1982 52.7698 35.884C53.6882 35.5578 54.4797 35.0744 55.1443 34.434C55.8089 33.7814 56.3225 32.9718 56.685 32.005L60.8178 33.1651C60.3828 34.5669 59.6517 35.7995 58.6245 36.8629C57.5974 37.9142 56.3285 38.7359 54.818 39.328C53.3075 39.9081 51.6097 40.1981 49.7246 40.1981ZM67.7601 39.618V11.7762H71.8929V15.9815H72.1829C72.6904 14.6039 73.6088 13.4861 74.9381 12.6281C76.2673 11.7702 77.7658 11.3412 79.4334 11.3412C79.7476 11.3412 80.1403 11.3472 80.6116 11.3593C81.0829 11.3714 81.4394 11.3895 81.681 11.4137V15.764C81.536 15.7277 81.2037 15.6733 80.6841 15.6008C80.1766 15.5162 79.6388 15.474 79.0709 15.474C77.7174 15.474 76.509 15.7579 75.4456 16.3259C74.3943 16.8818 73.5605 17.6551 72.9442 18.646C72.34 19.6249 72.0379 20.7426 72.0379 21.9994V39.618H67.7601ZM100.605 11.7762V15.4014H86.1763V11.7762H100.605ZM90.3816 5.10577H94.6594V31.6425C94.6594 32.8509 94.8346 33.7572 95.185 34.3614C95.5476 34.9536 96.0068 35.3523 96.5626 35.5578C97.1306 35.7511 97.7288 35.8478 98.3571 35.8478C98.8284 35.8478 99.2151 35.8236 99.5172 35.7753C99.8193 35.7149 100.061 35.6665 100.242 35.6303L101.112 39.473C100.822 39.5818 100.417 39.6905 99.8979 39.7993C99.3782 39.9201 98.7197 39.9806 97.9221 39.9806C96.7137 39.9806 95.5294 39.7208 94.3694 39.2011C93.2214 38.6815 92.2667 37.89 91.5054 36.8266C90.7562 35.7632 90.3816 34.4219 90.3816 32.8026V5.10577ZM107.04 39.618V11.7762H111.317V39.618H107.04ZM109.215 7.13591C108.381 7.13591 107.662 6.85193 107.058 6.28398C106.466 5.71602 106.17 5.03327 106.17 4.23572C106.17 3.43816 106.466 2.75541 107.058 2.18746C107.662 1.6195 108.381 1.33553 109.215 1.33553C110.049 1.33553 110.761 1.6195 111.354 2.18746C111.958 2.75541 112.26 3.43816 112.26 4.23572C112.26 5.03327 111.958 5.71602 111.354 6.28398C110.761 6.85193 110.049 7.13591 109.215 7.13591ZM131.551 11.7762V15.4014H116.542V11.7762H131.551ZM121.038 39.618V7.93346C121.038 6.33835 121.412 5.0091 122.161 3.9457C122.911 2.88229 123.883 2.08474 125.08 1.55304C126.276 1.02134 127.539 0.755486 128.868 0.755486C129.919 0.755486 130.777 0.840075 131.442 1.00925C132.107 1.17843 132.602 1.33552 132.928 1.48053L131.696 5.17828C131.478 5.10577 131.176 5.01514 130.789 4.90639C130.415 4.79763 129.919 4.74325 129.303 4.74325C127.889 4.74325 126.868 5.09973 126.24 5.8127C125.623 6.52566 125.315 7.57093 125.315 8.94852V39.618H121.038ZM137.546 39.618V11.7762H141.824V39.618H137.546ZM139.721 7.13591C138.887 7.13591 138.168 6.85193 137.564 6.28398C136.972 5.71602 136.676 5.03327 136.676 4.23572C136.676 3.43816 136.972 2.75541 137.564 2.18746C138.168 1.6195 138.887 1.33553 139.721 1.33553C140.555 1.33553 141.268 1.6195 141.86 2.18746C142.464 2.75541 142.766 3.43816 142.766 4.23572C142.766 5.03327 142.464 5.71602 141.86 6.28398C141.268 6.85193 140.555 7.13591 139.721 7.13591ZM160.97 40.1981C158.359 40.1981 156.112 39.5818 154.227 38.3492C152.341 37.1166 150.891 35.4188 149.876 33.2557C148.861 31.0927 148.354 28.6215 148.354 25.8421C148.354 23.0145 148.873 20.5191 149.913 18.356C150.964 16.1809 152.426 14.4831 154.299 13.2626C156.184 12.03 158.384 11.4137 160.897 11.4137C162.855 11.4137 164.619 11.7762 166.19 12.5013C167.761 13.2263 169.048 14.2414 170.051 15.5465C171.054 16.8515 171.676 18.3741 171.918 20.1143H167.64C167.314 18.8454 166.589 17.7216 165.465 16.7428C164.353 15.7519 162.855 15.2564 160.97 15.2564C159.302 15.2564 157.84 15.6915 156.583 16.5615C155.338 17.4195 154.366 18.634 153.665 20.2049C152.976 21.7637 152.631 23.5945 152.631 25.6971C152.631 27.8481 152.97 29.7211 153.647 31.3162C154.335 32.9114 155.302 34.15 156.547 35.0321C157.803 35.9143 159.278 36.3553 160.97 36.3553C162.081 36.3553 163.09 36.162 163.997 35.7753C164.903 35.3886 165.67 34.8327 166.299 34.1077C166.927 33.3826 167.374 32.5126 167.64 31.4975H171.918C171.676 33.1409 171.078 34.6213 170.123 35.9384C169.181 37.2435 167.93 38.2827 166.371 39.0561C164.824 39.8174 163.024 40.1981 160.97 40.1981ZM186.364 40.2706C184.6 40.2706 182.999 39.9383 181.561 39.2736C180.123 38.5969 178.981 37.6242 178.135 36.3553C177.289 35.0744 176.866 33.5276 176.866 31.715C176.866 30.1199 177.18 28.8269 177.809 27.836C178.437 26.833 179.277 26.0476 180.328 25.4796C181.38 24.9117 182.54 24.4887 183.809 24.2108C185.089 23.9208 186.376 23.6912 187.669 23.522C189.361 23.3045 190.733 23.1413 191.784 23.0326C192.847 22.9117 193.621 22.7123 194.104 22.4344C194.6 22.1565 194.847 21.6731 194.847 20.9843V20.8393C194.847 19.0509 194.358 17.6612 193.379 16.6703C192.412 15.6794 190.944 15.1839 188.974 15.1839C186.932 15.1839 185.331 15.631 184.171 16.5253C183.011 17.4195 182.195 18.3741 181.724 19.3892L177.664 17.9391C178.389 16.2473 179.356 14.9302 180.564 13.9876C181.784 13.033 183.114 12.3683 184.552 11.9937C186.002 11.607 187.428 11.4137 188.829 11.4137C189.724 11.4137 190.751 11.5224 191.911 11.74C193.083 11.9454 194.213 12.3744 195.301 13.0269C196.4 13.6795 197.313 14.6643 198.038 15.9815C198.763 17.2987 199.125 19.0629 199.125 21.2743V39.618H194.847V35.8478H194.63C194.34 36.452 193.856 37.0985 193.18 37.7873C192.503 38.4761 191.603 39.0622 190.479 39.5455C189.355 40.0289 187.984 40.2706 186.364 40.2706ZM187.017 36.4278C188.709 36.4278 190.135 36.0955 191.295 35.4309C192.467 34.7663 193.349 33.9083 193.941 32.857C194.545 31.8057 194.847 30.7 194.847 29.5399V25.6246C194.666 25.8421 194.267 26.0415 193.651 26.2228C193.047 26.392 192.346 26.543 191.548 26.6759C190.763 26.7968 189.996 26.9055 189.246 27.0022C188.509 27.0868 187.911 27.1593 187.452 27.2197C186.34 27.3647 185.301 27.6004 184.334 27.9266C183.38 28.2408 182.606 28.7182 182.014 29.3586C181.434 29.987 181.144 30.845 181.144 31.9325C181.144 33.4189 181.694 34.5427 182.793 35.304C183.905 36.0532 185.313 36.4278 187.017 36.4278ZM206.933 39.618V11.7762H211.066V16.1265H211.428C212.008 14.6402 212.945 13.4861 214.238 12.6644C215.531 11.8306 217.084 11.4137 218.896 11.4137C220.733 11.4137 222.262 11.8306 223.482 12.6644C224.715 13.4861 225.676 14.6402 226.364 16.1265H226.654C227.367 14.6885 228.437 13.5465 229.863 12.7006C231.289 11.8427 232.998 11.4137 234.992 11.4137C237.482 11.4137 239.518 12.1931 241.101 13.752C242.684 15.2987 243.475 17.7095 243.475 20.9843V39.618H239.198V20.9843C239.198 18.93 238.636 17.4618 237.512 16.5797C236.388 15.6975 235.065 15.2564 233.542 15.2564C231.585 15.2564 230.068 15.8486 228.993 17.0328C227.917 18.205 227.379 19.6913 227.379 21.4918V39.618H223.029V20.5493C223.029 18.9663 222.516 17.6914 221.488 16.7247C220.461 15.7458 219.138 15.2564 217.519 15.2564C216.407 15.2564 215.368 15.5525 214.401 16.1446C213.446 16.7367 212.673 17.5585 212.081 18.6098C211.501 19.649 211.211 20.8514 211.211 22.2169V39.618H206.933ZM262.608 40.1981C260.094 40.1981 257.889 39.5999 255.992 38.4036C254.106 37.2073 252.632 35.5336 251.569 33.3826C250.517 31.2317 249.992 28.7182 249.992 25.8421C249.992 22.9419 250.517 20.4103 251.569 18.2473C252.632 16.0842 254.106 14.4045 255.992 13.2082C257.889 12.0119 260.094 11.4137 262.608 11.4137C265.121 11.4137 267.32 12.0119 269.206 13.2082C271.103 14.4045 272.577 16.0842 273.628 18.2473C274.692 20.4103 275.223 22.9419 275.223 25.8421C275.223 28.7182 274.692 31.2317 273.628 33.3826C272.577 35.5336 271.103 37.2073 269.206 38.4036C267.32 39.5999 265.121 40.1981 262.608 40.1981ZM262.608 36.3553C264.517 36.3553 266.088 35.8659 267.32 34.8871C268.553 33.9083 269.465 32.6213 270.057 31.0262C270.65 29.4311 270.946 27.7031 270.946 25.8421C270.946 23.9812 270.65 22.2471 270.057 20.6399C269.465 19.0327 268.553 17.7337 267.32 16.7428C266.088 15.7519 264.517 15.2564 262.608 15.2564C260.698 15.2564 259.127 15.7519 257.895 16.7428C256.662 17.7337 255.75 19.0327 255.158 20.6399C254.566 22.2471 254.27 23.9812 254.27 25.8421C254.27 27.7031 254.566 29.4311 255.158 31.0262C255.75 32.6213 256.662 33.9083 257.895 34.8871C259.127 35.8659 260.698 36.3553 262.608 36.3553ZM301.475 18.0116L297.632 19.0992C297.39 18.4587 297.034 17.8364 296.562 17.2322C296.103 16.6159 295.475 16.1084 294.677 15.7096C293.88 15.3108 292.859 15.1114 291.614 15.1114C289.91 15.1114 288.49 15.5042 287.354 16.2896C286.231 17.063 285.669 18.0479 285.669 19.2442C285.669 20.3076 286.055 21.1475 286.829 21.7637C287.602 22.38 288.811 22.8936 290.454 23.3045L294.587 24.3195C297.076 24.9237 298.931 25.8482 300.151 27.0928C301.372 28.3254 301.982 29.9145 301.982 31.86C301.982 33.4551 301.523 34.8811 300.605 36.1378C299.698 37.3946 298.429 38.3855 296.798 39.1105C295.167 39.8356 293.27 40.1981 291.107 40.1981C288.267 40.1981 285.916 39.5818 284.055 38.3492C282.194 37.1166 281.016 35.3161 280.521 32.9476L284.581 31.9325C284.968 33.431 285.699 34.5548 286.774 35.304C287.862 36.0532 289.282 36.4278 291.034 36.4278C293.028 36.4278 294.611 36.0049 295.783 35.159C296.967 34.301 297.559 33.2739 297.559 32.0775C297.559 31.1108 297.221 30.3012 296.544 29.6486C295.868 28.984 294.828 28.4886 293.427 28.1623L288.786 27.0747C286.237 26.4705 284.364 25.534 283.167 24.2652C281.983 22.9842 281.391 21.3831 281.391 19.4617C281.391 17.8908 281.832 16.5011 282.714 15.2927C283.608 14.0843 284.823 13.1357 286.357 12.4469C287.904 11.7581 289.656 11.4137 291.614 11.4137C294.369 11.4137 296.532 12.0179 298.103 13.2263C299.686 14.4347 300.81 16.0298 301.475 18.0116ZM341.774 50.0587V35.3403H341.411C341.097 35.8478 340.65 36.4883 340.07 37.2616C339.49 38.0229 338.662 38.7057 337.587 39.3099C336.511 39.902 335.079 40.1981 333.291 40.1981C330.971 40.1981 328.922 39.612 327.146 38.4398C325.37 37.2556 323.98 35.588 322.977 33.437C321.974 31.274 321.472 28.7182 321.472 25.7696C321.472 22.8453 321.974 20.3076 322.977 18.1566C323.98 16.0057 325.376 14.3441 327.164 13.1719C328.952 11.9998 331.019 11.4137 333.363 11.4137C335.176 11.4137 336.608 11.7158 337.659 12.32C338.723 12.9121 339.532 13.5888 340.088 14.3501C340.656 15.0993 341.097 15.7156 341.411 16.199H341.919V11.7762H346.052V50.0587H341.774ZM333.871 36.3553C335.587 36.3553 337.037 35.9082 338.221 35.014C339.405 34.1077 340.306 32.857 340.922 31.2619C341.538 29.6547 341.846 27.7998 341.846 25.6971C341.846 23.6187 341.544 21.8 340.94 20.2411C340.336 18.6702 339.442 17.4497 338.257 16.5797C337.073 15.6975 335.611 15.2564 333.871 15.2564C332.058 15.2564 330.548 15.7217 329.339 16.6522C328.143 17.5706 327.243 18.8213 326.638 20.4043C326.046 21.9752 325.75 23.7395 325.75 25.6971C325.75 27.6789 326.052 29.4795 326.657 31.0987C327.273 32.7059 328.179 33.9868 329.375 34.9415C330.584 35.884 332.082 36.3553 333.871 36.3553ZM371.428 28.2348V11.7762H375.706V39.618H371.428V34.9052H371.138C370.486 36.3191 369.471 37.5214 368.093 38.5123C366.715 39.4912 364.975 39.9806 362.873 39.9806C361.133 39.9806 359.586 39.5999 358.232 38.8386C356.879 38.0652 355.816 36.9052 355.042 35.3584C354.269 33.7995 353.882 31.8359 353.882 29.4674V11.7762H358.16V29.1774C358.16 31.2075 358.728 32.8268 359.864 34.0352C361.012 35.2436 362.474 35.8478 364.25 35.8478C365.314 35.8478 366.395 35.5759 367.495 35.0321C368.607 34.4883 369.537 33.6545 370.286 32.5307C371.048 31.4069 371.428 29.9749 371.428 28.2348ZM395.214 40.1981C392.532 40.1981 390.218 39.606 388.272 38.4217C386.338 37.2254 384.846 35.5578 383.795 33.4189C382.756 31.2679 382.236 28.7665 382.236 25.9146C382.236 23.0628 382.756 20.5493 383.795 18.3741C384.846 16.1869 386.308 14.4831 388.181 13.2626C390.066 12.03 392.266 11.4137 394.779 11.4137C396.229 11.4137 397.661 11.6554 399.075 12.1387C400.489 12.6221 401.776 13.4076 402.936 14.4951C404.096 15.5706 405.021 16.9966 405.709 18.7729C406.398 20.5493 406.743 22.7365 406.743 25.3346V27.1472H385.281V23.4495H402.392C402.392 21.8785 402.078 20.4768 401.45 19.2442C400.833 18.0116 399.951 17.0388 398.803 16.3259C397.667 15.6129 396.326 15.2564 394.779 15.2564C393.075 15.2564 391.601 15.6794 390.356 16.5253C389.124 17.3591 388.175 18.4467 387.511 19.788C386.846 21.1293 386.514 22.5673 386.514 24.102V26.5672C386.514 28.6698 386.876 30.4522 387.601 31.9144C388.338 33.3645 389.36 34.4702 390.665 35.2315C391.97 35.9807 393.486 36.3553 395.214 36.3553C396.338 36.3553 397.353 36.1982 398.259 35.884C399.178 35.5578 399.969 35.0744 400.634 34.434C401.299 33.7814 401.812 32.9718 402.175 32.005L406.308 33.1651C405.872 34.5669 405.141 35.7995 404.114 36.8629C403.087 37.9142 401.818 38.7359 400.308 39.328C398.797 39.9081 397.099 40.1981 395.214 40.1981Z" fill="#FCFCFC"/>
</svg>
